<svg version="1.1"
	 id="buoy-icon" xmlns:cc="http://creativecommons.org/ns#" xmlns:dc="http://purl.org/dc/elements/1.1/" xmlns:inkscape="http://www.inkscape.org/namespaces/inkscape" xmlns:rdf="http://www.w3.org/1999/02/22-rdf-syntax-ns#" xmlns:sodipodi="http://sodipodi.sourceforge.net/DTD/sodipodi-0.dtd" xmlns:svg="http://www.w3.org/2000/svg"
	 xmlns="http://www.w3.org/2000/svg" xmlns:xlink="http://www.w3.org/1999/xlink" x="0px" y="0px" viewBox="0 0 100 100" width="15px" height="15px"
	 style="enable-background:new 0 0 100 100;" xml:space="preserve">
<g transform="translate(0,-952.36217)">
	<path d="M37.9,953.5v21.9l-2.2,0l-6.4,56.6h-5.7c0,7.6,2.6,13.1,6.7,16.8c0.4,0,0.9,0.1,1.4,0.1c3.8,0,6.1-1.5,6.1-1.5
		s2.3,1.5,6.1,1.5s6.1-1.5,6.1-1.5s2.3,1.5,6.1,1.5s6.1-1.5,6.1-1.5s2.3,1.5,6.1,1.5c0.2,0,0.4,0,0.5,0c4.1-3.7,6.7-9.3,6.7-16.9
		h-5.3l-6.2-56.7l-2.8,0v-21.8C61.3,953.5,37.9,953.5,37.9,953.5z M40.5,956.1h8.6v1.8c-2.6,0.1-4.7,1.2-4.7,2.6l-1.2,6
		c-0.9,0.3-1.4,0.7-1.4,1.1c0,1,2.8,1.8,6.5,1.9c0,0.1,0,0.2,0,0.3c0,0.7,0.6,1.3,1.3,1.3c0.7,0,1.3-0.6,1.3-1.3c0-0.1,0-0.2,0-0.3
		c3.7-0.2,6.5-1,6.5-1.9c0-0.4-0.5-0.8-1.4-1.1l-1.2-6c0-1.3-1.9-2.4-4.4-2.6v-1.8h8.3V973H40.5L40.5,956.1L40.5,956.1z M40.4,978.7
		h20.9l1.5,13.3C62.8,992,40.4,978.7,40.4,978.7z M38.3,980.5l24.8,14.7l0.1,1l-27.8,9L38.3,980.5L38.3,980.5z M63.6,998.9l2.8,24.8
		l-31.3-14.6l0.1-1L63.6,998.9z M34.8,1012l32,14.9l0.4,3.1H50H32.7L34.8,1012z M25.6,1048.6C25.5,1048.6,25.5,1048.6,25.6,1048.6
		c-0.2,0-0.3,0.1-0.4,0.2c0,0,0,0,0,0c-0.2,0.1-2.1,1.3-5.4,1.4v1.4c3,0,5.1-1,5.9-1.4c0.8,0.4,2.9,1.4,6.1,1.4c3.1,0,5.3-1,6.1-1.4
		c0.8,0.4,2.9,1.4,6.1,1.4c3.1,0,5.3-1,6.1-1.4c0.8,0.4,2.9,1.4,6.1,1.4c3.1,0,5.3-1,6.1-1.4c0.8,0.4,2.9,1.4,6.1,1.4
		c3.1,0,5.3-1,6.1-1.4c0.7,0.4,2.7,1.3,5.5,1.4v-1.4c-3.1-0.1-4.9-1.3-5-1.4c0,0,0,0,0,0c-0.1-0.1-0.3-0.1-0.4-0.1c0,0-0.1,0-0.1,0
		c-0.1,0-0.3,0.1-0.4,0.2c0,0,0,0,0,0c-0.2,0.1-2.2,1.4-5.6,1.4c-3.5,0-5.5-1.3-5.6-1.4c0,0,0,0,0,0c-0.1-0.1-0.3-0.1-0.4-0.1
		c0,0-0.1,0-0.1,0c-0.1,0-0.3,0.1-0.4,0.2c0,0,0,0,0,0c-0.2,0.1-2.2,1.4-5.6,1.4c-3.5,0-5.5-1.3-5.6-1.4c0,0,0,0,0,0
		c-0.1-0.1-0.3-0.1-0.4-0.1c0,0-0.1,0-0.1,0c-0.1,0-0.3,0.1-0.4,0.2c0,0,0,0,0,0c-0.2,0.1-2.2,1.4-5.6,1.4c-3.5,0-5.5-1.3-5.6-1.4
		c0,0,0,0,0,0c-0.1-0.1-0.3-0.1-0.4-0.1c0,0-0.1,0-0.1,0c-0.1,0-0.3,0.1-0.4,0.2c0,0,0,0,0,0c-0.2,0.1-2.2,1.4-5.6,1.4
		c-3.5,0-5.5-1.3-5.6-1.4c0,0,0,0,0,0C25.9,1048.7,25.8,1048.6,25.6,1048.6C25.6,1048.6,25.6,1048.6,25.6,1048.6L25.6,1048.6z"/>
</g>
</svg>
